PathFileType	4	(X/Y/Z)	C:\Users\WrightLab\Desktop\Jo\P4V123.trc
DataRate	CameraRate	NumFrames	NumMarkers	Units	OrigDataRate	OrigDataStartFrame	OrigNumFrames
100.00	100.00	       13	19	mm	100.00	190	       504
Frame#	Time	Headset_Front			Headset_Back			Headset_Left			Headset_Right			Left_Shoulder			Right_Shoulder			Sternum			C7			Left Elbow			Right Elbow			Left Wrist			Right Wrist			Left ASIS			Right ASIS			S2			Left Knee			Right Knee			Left Ankle			Right Ankle			
		X1	Y1	Z1	X2	Y2	Z2	X3	Y3	Z3	X4	Y4	Z4	X5	Y5	Z5	X6	Y6	Z6	X7	Y7	Z7	X8	Y8	Z8	X9	Y9	Z9	X10	Y10	Z10	X11	Y11	Z11	X12	Y12	Z12	X13	Y13	Z13	X14	Y14	Z14	X15	Y15	Z15	X16	Y16	Z16	X17	Y17	Z17	X18	Y18	Z18	X19	Y19	Z19	

190	1.890	-149.58952	1589.90625	456.17853	-232.90022	1675.03772	630.57513							-187.75316	1503.38342	774.09509	55.87729	1541.14795	616.96375	-125.12762	1448.58105	609.14270	-38.47831	1561.46521	733.49445	-221.76811	1154.17200	918.14917	220.85742	1426.88513	332.77670	-254.72398	844.61377	887.99548	136.48662	1435.84302	42.98873	-187.71982	1021.22980	701.34473	77.63520	1021.99701	497.61105				-274.84174	568.81787	636.75146	193.28075	563.96521	630.54553	-308.90027	62.09723	593.81128	314.02130	121.13492	875.18292	
191	1.900	26.64049	1048.87512	753.60223	-240.50148	1674.11218	622.56763							-195.83365	1503.33093	767.71454	47.78370	1540.57617	608.54547	-133.14041	1448.36560	602.25714	-46.14089	1560.90198	726.71393	-228.67378	1154.26697	912.32190	213.57138	1429.58362	325.89853	-262.14609	844.26556	885.78687	130.31134	1440.72681	36.30890	-197.22243	1021.69037	694.38422	66.41789	1021.31256	489.15823				-284.15421	567.38831	631.40961	184.75676	563.85297	620.99023	-307.63159	59.83912	593.86560	311.98853	126.14431	872.70660	
192	1.910	16.88047	1048.48584	745.15857	-248.48035	1673.91565	614.66992							-203.59763	1503.14648	761.50793	39.83469	1539.63245	604.31439	-141.58095	1448.33813	595.72662	-53.78316	1560.29590	720.06451	-236.54211	1155.31152	907.66565	206.27882	1432.17310	319.94809	-271.45111	845.57605	881.74036	124.36850	1445.20520	29.36885	-207.37946	1022.17169	687.26019	55.27422	1019.90479	479.73703				-292.48117	566.69165	626.02905	174.09517	563.31921	612.04755	-308.48248	60.93900	592.58728	309.63083	131.08510	869.38306	
193	1.920	7.29482	1048.84387	736.24268	-256.23276	1673.87854	606.77289							-211.96149	1503.60449	754.69128	31.81017	1539.58179	597.20190	-149.81439	1448.86340	588.97595	-62.70079	1560.55872	713.67188	-244.51834	1155.74536	901.82715	198.43895	1434.29187	312.95151	-279.73975	845.33258	877.92505	118.03681	1449.94958	23.12219	-217.30554	1023.05878	680.24628	43.30048	1019.22656	470.71851				-301.32065	565.34894	621.51221	164.32054	562.94818	601.80591	-309.79715	62.34694	591.31128	306.61102	137.16560	865.80939	
194	1.930	-2.46905	1048.82654	726.60059	-262.35446	1673.17920	598.42554							-219.42758	1503.97693	749.08252	23.29987	1539.54712	591.42102	-158.62070	1449.84424	582.83948	-69.89449	1560.94910	706.71729	-252.89514	1156.80298	896.05457	191.67953	1436.77625	306.40228	-288.88702	846.09863	872.71167	111.78514	1452.12061	15.61901	-227.42752	1023.90009	673.51288	31.91325	1018.64612	461.44287				-309.88315	564.88049	618.02557	153.66017	563.75830	590.85413	-310.07147	62.58008	589.71539	302.73254	143.70367	861.92987	
195	1.940	-12.31093	1049.36975	720.32825	-271.90787	1674.07715	591.09515							-227.14200	1505.73376	742.75775	15.14915	1539.83313	584.50293	-167.23715	1451.12781	576.34979	-78.93684	1561.44019	700.34070	-260.99792	1157.98816	889.91504	184.55667	1439.25940	301.22214	-298.71884	848.13171	865.48254	106.06003	1456.09497	9.48720	-237.80911	1024.91223	667.15021	19.67470	1018.64581	452.79858				-316.30984	562.62158	614.65332	142.07951	563.49072	579.52069	-311.15173	62.21038	587.19965	298.06323	151.15222	857.15662	
196	1.950				-279.43344	1675.26489	583.12970							-234.82001	1506.71838	736.94165	7.27716	1539.90454	579.84766	-176.20313	1452.49268	570.17981	-86.75101	1562.02185	693.63928	-270.09601	1159.33142	883.70514	177.32306	1441.08057	295.32599	-309.27939	849.93170	858.82599	100.28088	1459.70020	3.37435	-247.39542	1025.97729	660.82513	7.97918	1018.72913	444.14868				-325.07047	562.26947	610.78821	129.95378	563.19989	565.76190	-312.30719	63.12884	585.44641	291.95865	158.36104	851.32367	
197	1.960	-197.00429	1588.45605	405.16885	-287.93182	1676.16833	575.81519							-242.68715	1508.53748	730.61896	-1.55759	1541.18799	569.94696	-185.03763	1454.03064	563.75214	-94.82516	1562.77222	687.07788	-279.56696	1161.11328	876.98041	170.50363	1443.21790	289.64880	-320.10037	851.48132	851.53204	94.66251	1463.27234	-2.57424	-257.44968	1027.24084	655.04022	-4.27569	1019.26434	435.91107	-29.05408	1050.20508	701.79919	-332.77359	561.51019	606.76093	116.59798	562.70435	552.22906	-313.27655	63.36207	584.85431	284.72195	166.83716	845.43066	
198	1.970				-294.74271	1676.72607	568.02368							-251.16405	1509.72791	724.48376	-10.10911	1541.38953	566.55707	-193.74266	1455.35413	557.04907	-103.61001	1563.70618	680.55109	-289.09500	1162.02197	870.58777	163.91885	1445.68677	284.30246	-330.33984	851.90839	844.45605	88.92635	1467.15979	-8.67403	-266.89697	1028.24377	649.34576	-16.23016	1019.48645	428.09048	-38.36688	1050.93945	693.75897	-341.42059	560.70654	602.86481	103.49749	562.20630	536.50134	-313.70172	64.04701	584.10236	276.90100	175.78944	838.37347	
199	1.980	-211.64462	1590.52856	391.44797	-302.78284	1678.07776	560.72955							-258.54767	1511.67114	718.30304	-17.99507	1541.94312	559.97406	-202.71169	1457.08020	550.77179	-111.47183	1564.41833	673.66760	-299.08295	1164.07300	863.67902	157.16301	1447.62927	278.13187	-342.01212	854.55084	836.18713	83.66020	1470.16138	-14.70709	-276.81650	1029.71423	644.00397	-27.64676	1019.37805	420.78214	-48.20850	1051.22937	687.41754	-348.63455	560.08746	599.13538	89.24149	561.11432	519.16766	-313.88882	63.97582	583.15149	268.64838	186.60989	831.73853	
200	1.990	-218.08327	1591.70166	385.40100	-310.59628	1679.13782	553.43555							-266.62152	1512.59387	711.58734	-26.52820	1542.89722	551.84149	-211.36404	1458.39893	544.07452	-119.34888	1565.48279	666.78442	-307.91846	1165.29724	855.72516	150.16428	1449.34680	273.28995	-354.04758	856.65387	826.78906	78.54191	1472.76440	-20.66061	-284.84189	1029.42358	639.41669	-39.62419	1019.63464	412.29077				-356.32288	559.24542	595.57849	74.37975	559.92365	502.84155	-314.38235	64.40805	582.03284	258.02063	196.56441	823.51788	
201	2.000	-225.28099	1592.93201	378.00842	-317.86768	1680.63672	546.07294							-274.86282	1514.81421	704.99677	-34.85583	1543.11816	546.33594	-219.90280	1459.70593	537.41876	-127.78735	1566.01123	660.07367	-317.95615	1166.83594	848.08661	142.67299	1449.45105	266.21487	-365.62195	858.69806	817.30389	73.03161	1475.77087	-26.43670	-293.89032	1030.75586	634.12201	-50.49009	1019.53375	405.08734				-362.60834	558.75787	591.64221	59.27314	558.31683	485.25558	-314.35104	64.63002	581.77515	246.12529	207.55293	813.60529	
202	2.010	-232.36992	1594.54749	370.61060	-325.40012	1682.01306	538.92792							-283.24313	1516.41187	698.23688	-42.43581	1543.53845	539.64679	-228.20314	1460.92236	530.52063	-134.94827	1566.65430	653.06537	-328.00958	1168.02698	840.70020	137.16380	1453.37646	261.58185	-378.83603	861.29480	805.94342	67.65164	1478.39185	-32.76830	-303.22034	1032.56055	628.81549	-61.05192	1019.96442	397.72382	-73.30638	1052.31311	665.79846	-369.09976	558.66339	587.88196	44.24310	556.21979	467.34189	-314.27417	64.90417	581.53485	233.81566	218.36662	802.93323	
